<?xml version="1.0" standalone="no"?>
<!DOCTYPE svg PUBLIC "-//W3C//DTD SVG 20010904//EN"
 "http://www.w3.org/TR/2001/REC-SVG-20010904/DTD/svg10.dtd">
<svg version="1.0" xmlns="http://www.w3.org/2000/svg"
 width="200.000000pt" height="200.000000pt" viewBox="0 0 200.000000 200.000000"
 preserveAspectRatio="xMidYMid meet">

<g transform="translate(0.000000,200.000000) scale(0.100000,-0.100000)"
fill="#000000" stroke="none">
<path d="M517 1722 c-13 -15 -17 -39 -17 -115 0 -130 6 -137 130 -137 83 0 93
2 115 25 23 22 25 32 25 112 0 129 -4 133 -134 133 -87 0 -105 -3 -119 -18z
m201 -115 l3 -88 -88 3 -88 3 -3 74 c-2 41 -1 80 2 88 4 11 25 13 88 11 l83
-3 3 -88z"/>
<path d="M974 1726 c-16 -12 -20 -29 -22 -110 -4 -91 -3 -96 22 -121 23 -23
32 -25 114 -25 126 0 136 9 140 127 3 78 1 91 -18 116 -21 26 -25 27 -119 27
-68 0 -103 -4 -117 -14z m201 -116 l0 -85 -87 -3 -88 -3 0 84 c0 46 3 87 7 91
4 4 43 5 88 4 l80 -3 0 -85z"/>
<path d="M1426 1718 c-12 -16 -16 -47 -16 -113 0 -83 2 -94 23 -113 20 -19 35
-22 115 -22 126 0 132 6 132 138 0 130 -2 132 -138 132 -93 0 -102 -2 -116
-22z m209 -108 l0 -85 -84 -3 c-61 -2 -87 1 -92 10 -10 15 -12 129 -3 153 5
13 21 15 93 13 l86 -3 0 -85z"/>
<path d="M1226 1365 c-16 -25 -18 -25 -147 -25 -125 0 -131 -1 -154 -25 -24
-23 -25 -29 -25 -161 0 -108 3 -142 16 -164 16 -27 16 -29 -15 -74 -31 -44
-33 -46 -54 -31 -12 8 -30 15 -41 15 -11 0 -32 12 -47 26 -23 22 -37 26 -78
26 -28 -1 -53 3 -56 8 -9 15 -78 12 -101 -4 -11 -8 -60 -76 -109 -152 -81
-124 -89 -143 -93 -193 -5 -84 24 -133 118 -198 41 -29 97 -64 124 -78 46 -23
56 -24 145 -19 87 6 103 4 171 -20 41 -15 85 -30 98 -33 52 -13 89 70 58 133
-18 38 -90 89 -148 105 -21 5 -38 12 -38 15 0 3 65 104 145 224 l144 220 44 0
c35 0 50 6 71 27 l27 27 -5 145 c-6 196 -9 224 -22 228 -6 2 -19 -8 -28 -22z
m-73 -132 c-62 -111 -62 -110 -72 -93 -5 8 -24 35 -41 59 -29 39 -33 42 -47
28 -14 -13 -12 -20 16 -61 l31 -45 -36 -48 c-20 -26 -42 -48 -48 -48 -7 0 -12
40 -14 121 -3 158 -7 154 139 154 l110 0 -38 -67z m87 -82 c0 -113 -1 -121
-22 -135 -32 -23 -48 -20 -48 10 0 14 -7 38 -16 54 -16 27 -16 29 27 109 24
44 47 81 52 81 4 0 7 -54 7 -119z m-122 -112 c2 -20 -39 -89 -167 -284 -173
-263 -183 -285 -130 -285 34 0 122 -39 151 -67 28 -27 38 -75 19 -88 -5 -3
-45 7 -88 21 -68 23 -93 27 -189 25 l-112 -1 -105 69 c-93 62 -106 74 -122
115 -11 29 -15 57 -11 78 3 17 46 92 94 165 96 147 115 162 158 122 21 -20 28
-21 44 -11 32 19 57 14 79 -17 15 -21 27 -28 41 -24 24 6 49 -12 61 -45 5 -13
15 -22 22 -20 6 2 40 46 74 98 116 176 121 182 151 178 21 -2 28 -9 30 -29z"/>
<path d="M535 1278 c-32 -18 -35 -28 -35 -129 0 -128 6 -134 137 -134 125 0
133 8 133 137 0 81 -2 91 -25 113 -22 23 -32 25 -107 25 -46 0 -92 -6 -103
-12z m183 -125 l-3 -88 -85 0 -85 0 -3 74 c-2 41 -1 80 2 88 4 9 29 13 91 13
l86 0 -3 -87z"/>
<path d="M1436 1269 c-25 -19 -26 -25 -26 -114 0 -132 7 -140 133 -140 131 0
137 6 137 136 0 93 -1 98 -26 118 -22 17 -41 21 -109 21 -68 0 -87 -4 -109
-21z m199 -119 l0 -85 -84 -3 c-61 -2 -87 1 -92 10 -10 15 -12 129 -3 153 5
13 21 15 93 13 l86 -3 0 -85z"/>
<path d="M1105 820 c-9 -15 4 -30 25 -30 46 0 50 -8 50 -95 0 -66 -3 -84 -16
-89 -28 -11 -144 -6 -164 6 -15 10 -22 10 -32 0 -9 -9 -7 -16 7 -32 16 -17 30
-20 115 -20 129 0 135 6 135 135 0 77 -3 96 -19 114 -20 22 -89 30 -101 11z"/>
<path d="M1430 810 c-17 -17 -20 -33 -20 -115 0 -129 6 -135 135 -135 129 0
135 6 135 135 0 129 -6 135 -135 135 -82 0 -98 -3 -115 -20z m198 -32 c7 -7
12 -41 12 -83 0 -42 -5 -76 -12 -83 -16 -16 -150 -16 -166 0 -7 7 -12 41 -12
83 0 42 5 76 12 83 16 16 150 16 166 0z"/>
</g>
</svg>
