<?xml version="1.0" standalone="no"?>
<!DOCTYPE svg PUBLIC "-//W3C//DTD SVG 20010904//EN"
 "http://www.w3.org/TR/2001/REC-SVG-20010904/DTD/svg10.dtd">
<svg version="1.0" xmlns="http://www.w3.org/2000/svg"
 width="225.000000pt" height="225.000000pt" viewBox="0 0 225.000000 225.000000"
 preserveAspectRatio="xMidYMid meet">

<g transform="translate(0.000000,225.000000) scale(0.100000,-0.100000)"
fill="#000000" stroke="none">
<path d="M1000 2219 c-396 -46 -753 -317 -896 -681 -201 -511 -11 -1073 462
-1362 184 -112 445 -170 661 -146 269 29 489 133 674 319 432 432 432 1120 0
1552 -182 183 -406 289 -666 319 -102 11 -129 11 -235 -1z m342 -198 c388
-100 661 -418 702 -818 l7 -62 -43 -3 c-37 -3 -44 -7 -46 -27 -4 -28 12 -41
54 -41 l30 0 -8 -72 c-12 -100 -66 -252 -124 -350 -65 -109 -203 -247 -312
-312 -173 -103 -389 -151 -579 -127 -213 26 -397 115 -548 266 -152 153 -241
337 -267 552 -22 190 25 402 128 575 65 110 202 247 312 312 92 54 244 110
342 125 92 14 261 5 352 -18z"/>
<path d="M1093 1124 c-3 -9 -2 -24 4 -33 15 -24 151 -23 166 1 8 12 7 21 -2
32 -20 23 -159 23 -168 0z"/>
<path d="M1317 1133 c-13 -12 -7 -51 9 -57 9 -3 42 -6 74 -6 68 0 97 18 80 51
-9 16 -22 19 -84 19 -40 0 -76 -3 -79 -7z"/>
<path d="M1531 1126 c-9 -11 -10 -20 -1 -36 10 -19 19 -21 82 -18 74 3 98 18
85 52 -9 22 -148 24 -166 2z"/>
<path d="M1745 1120 c-12 -37 11 -50 85 -50 74 0 97 13 85 50 -6 18 -15 20
-85 20 -70 0 -79 -2 -85 -20z"/>
</g>
</svg>
