<?xml version="1.0" standalone="no"?>
<!DOCTYPE svg PUBLIC "-//W3C//DTD SVG 20010904//EN"
 "http://www.w3.org/TR/2001/REC-SVG-20010904/DTD/svg10.dtd">
<svg version="1.0" xmlns="http://www.w3.org/2000/svg"
 width="225.000000pt" height="225.000000pt" viewBox="0 0 225.000000 225.000000"
 preserveAspectRatio="xMidYMid meet">

<g transform="translate(0.000000,225.000000) scale(0.100000,-0.100000)"
fill="#000000" stroke="none">
<path d="M964 2159 c-75 -12 -210 -57 -279 -92 -304 -153 -512 -436 -565 -769
-20 -122 -8 -322 24 -433 106 -359 359 -612 721 -722 84 -25 102 -27 275 -27
173 0 191 2 274 27 362 111 614 363 723 722 25 84 27 102 27 275 0 173 -2 191
-27 275 -119 392 -419 666 -810 740 -85 16 -278 18 -363 4z m386 -160 c47 -11
121 -37 165 -59 86 -41 205 -125 205 -143 0 -18 -119 -129 -187 -175 -70 -48
-238 -132 -262 -132 -10 0 -35 34 -61 82 -53 95 -233 373 -262 405 -26 28 -20
31 79 43 91 11 220 3 323 -21z m-464 -241 c67 -101 131 -201 144 -223 13 -22
32 -54 42 -72 l18 -31 -107 -26 c-220 -52 -679 -104 -704 -79 -15 15 38 165
91 257 71 124 199 252 330 329 25 15 50 27 55 27 6 0 65 -82 131 -182z m1038
-208 c55 -106 84 -200 95 -310 5 -47 8 -86 6 -88 -1 -2 -54 5 -116 14 -74 11
-182 17 -308 18 l-193 1 -39 75 c-21 41 -38 78 -39 82 0 3 46 30 103 58 127
65 232 139 322 230 l70 71 27 -33 c15 -18 47 -71 72 -118z m-722 -334 l37 -75
-52 -15 c-74 -22 -203 -86 -294 -147 -96 -64 -302 -269 -367 -366 l-49 -72
-45 57 c-95 122 -162 304 -177 483 l-7 77 108 6 c270 16 527 53 699 99 50 14
95 25 100 26 6 1 27 -32 47 -73z m731 -194 c43 -11 80 -22 83 -24 8 -9 -46
-178 -77 -241 -61 -120 -134 -214 -229 -293 -35 -30 -67 -54 -70 -54 -4 0 -14
37 -24 83 -24 114 -79 312 -121 436 -19 58 -35 106 -35 107 0 9 77 12 225 9
128 -2 189 -8 248 -23z m-584 -186 c58 -169 134 -463 129 -497 -2 -19 -16 -27
-73 -45 -230 -72 -490 -43 -700 76 -117 68 -117 67 -62 150 91 136 239 272
400 366 79 46 240 115 249 106 4 -4 29 -74 57 -156z"/>
</g>
</svg>
